<mxfile host="app.diagrams.net" modified="2024-03-18T06:44:18.841Z" agent="Mozilla/5.0 (Macintosh; Intel Mac OS X 10_15_7) AppleWebKit/537.36 (KHTML, like Gecko) Chrome/122.0.0.0 Safari/537.36" etag="CVL7JnpFjPQ8mpJOtGzF" version="23.1.6" type="github">
  <diagram name="第 1 页" id="c-7c_1tNbE0PKbpdtI3S">
    <mxGraphModel dx="1029" dy="574" grid="1" gridSize="10" guides="1" tooltips="1" connect="1" arrows="1" fold="1" page="1" pageScale="1" pageWidth="1700" pageHeight="1100" math="0" shadow="0">
      <root>
        <mxCell id="0" />
        <mxCell id="1" parent="0" />
        <mxCell id="UIdJtbCAdwfRkpfuNcCa-1" value="" style="rounded=0;whiteSpace=wrap;html=1;fillColor=#dae8fc;strokeColor=#6c8ebf;" vertex="1" parent="1">
          <mxGeometry x="100" y="150" width="230" height="420" as="geometry" />
        </mxCell>
        <mxCell id="UIdJtbCAdwfRkpfuNcCa-2" value="企微、公众号、crm&amp;nbsp; API数据" style="rounded=1;whiteSpace=wrap;html=1;" vertex="1" parent="1">
          <mxGeometry x="155" y="190" width="120" height="60" as="geometry" />
        </mxCell>
        <mxCell id="UIdJtbCAdwfRkpfuNcCa-3" value="AE小数仓数据" style="rounded=1;whiteSpace=wrap;html=1;" vertex="1" parent="1">
          <mxGeometry x="155" y="460" width="120" height="60" as="geometry" />
        </mxCell>
        <mxCell id="UIdJtbCAdwfRkpfuNcCa-4" value="BG数据" style="rounded=1;whiteSpace=wrap;html=1;" vertex="1" parent="1">
          <mxGeometry x="155" y="370" width="120" height="60" as="geometry" />
        </mxCell>
        <mxCell id="UIdJtbCAdwfRkpfuNcCa-5" value="CRM业务数据" style="rounded=1;whiteSpace=wrap;html=1;" vertex="1" parent="1">
          <mxGeometry x="155" y="280" width="120" height="60" as="geometry" />
        </mxCell>
        <mxCell id="UIdJtbCAdwfRkpfuNcCa-8" value="数据提取服务" style="rounded=0;whiteSpace=wrap;html=1;fillColor=#e1d5e7;strokeColor=#9673a6;" vertex="1" parent="1">
          <mxGeometry x="380" y="320" width="120" height="60" as="geometry" />
        </mxCell>
        <mxCell id="UIdJtbCAdwfRkpfuNcCa-9" value="" style="rounded=0;whiteSpace=wrap;html=1;fillColor=#dae8fc;strokeColor=#6c8ebf;" vertex="1" parent="1">
          <mxGeometry x="560" y="150" width="220" height="420" as="geometry" />
        </mxCell>
        <mxCell id="UIdJtbCAdwfRkpfuNcCa-10" value="文件" style="rounded=1;whiteSpace=wrap;html=1;" vertex="1" parent="1">
          <mxGeometry x="610" y="210" width="120" height="60" as="geometry" />
        </mxCell>
        <mxCell id="UIdJtbCAdwfRkpfuNcCa-11" value="mysql临时数据" style="rounded=1;whiteSpace=wrap;html=1;" vertex="1" parent="1">
          <mxGeometry x="610" y="310" width="120" height="60" as="geometry" />
        </mxCell>
        <mxCell id="UIdJtbCAdwfRkpfuNcCa-12" value="kafka队列" style="rounded=1;whiteSpace=wrap;html=1;" vertex="1" parent="1">
          <mxGeometry x="610" y="420" width="120" height="60" as="geometry" />
        </mxCell>
        <mxCell id="UIdJtbCAdwfRkpfuNcCa-14" value="" style="rounded=0;whiteSpace=wrap;html=1;fillColor=#dae8fc;strokeColor=#6c8ebf;" vertex="1" parent="1">
          <mxGeometry x="850" y="150" width="410" height="420" as="geometry" />
        </mxCell>
        <mxCell id="UIdJtbCAdwfRkpfuNcCa-15" value="落盘" style="text;html=1;align=center;verticalAlign=middle;whiteSpace=wrap;rounded=0;fontSize=19;fontStyle=1" vertex="1" parent="1">
          <mxGeometry x="850" y="120" width="60" height="30" as="geometry" />
        </mxCell>
        <mxCell id="UIdJtbCAdwfRkpfuNcCa-16" value="数据源" style="text;html=1;align=center;verticalAlign=middle;whiteSpace=wrap;rounded=0;fontSize=19;fontStyle=1" vertex="1" parent="1">
          <mxGeometry x="100" y="120" width="60" height="30" as="geometry" />
        </mxCell>
        <mxCell id="UIdJtbCAdwfRkpfuNcCa-17" value="临时区" style="text;html=1;align=center;verticalAlign=middle;whiteSpace=wrap;rounded=0;fontSize=19;fontStyle=1" vertex="1" parent="1">
          <mxGeometry x="560" y="120" width="60" height="30" as="geometry" />
        </mxCell>
        <mxCell id="UIdJtbCAdwfRkpfuNcCa-18" value="" style="rounded=0;whiteSpace=wrap;html=1;" vertex="1" parent="1">
          <mxGeometry x="560" y="600" width="700" height="60" as="geometry" />
        </mxCell>
        <mxCell id="UIdJtbCAdwfRkpfuNcCa-19" value="数据转换" style="rounded=1;whiteSpace=wrap;html=1;" vertex="1" parent="1">
          <mxGeometry x="640" y="610" width="100" height="40" as="geometry" />
        </mxCell>
        <mxCell id="UIdJtbCAdwfRkpfuNcCa-20" value="数据落盘" style="rounded=1;whiteSpace=wrap;html=1;" vertex="1" parent="1">
          <mxGeometry x="790" y="610" width="100" height="40" as="geometry" />
        </mxCell>
        <mxCell id="UIdJtbCAdwfRkpfuNcCa-21" value="特征加工" style="rounded=1;whiteSpace=wrap;html=1;" vertex="1" parent="1">
          <mxGeometry x="950" y="610" width="100" height="40" as="geometry" />
        </mxCell>
      </root>
    </mxGraphModel>
  </diagram>
</mxfile>
